<svg xmlns="http://www.w3.org/2000/svg" viewBox="0 0 800 600" preserveAspectRatio="xMidYMid slice">
  <defs>
    <linearGradient id="cardBg" x1="0" y1="0" x2="0" y2="1">
      <stop offset="0%" stop-color="#ffffff"/>
      <stop offset="100%" stop-color="#e5e7eb"/>
    </linearGradient>
    <linearGradient id="cardHeader" x1="0" y1="0" x2="1" y2="0">
      <stop offset="0%" stop-color="#1e3a8a"/>
      <stop offset="100%" stop-color="#1e40af"/>
    </linearGradient>
    <pattern id="grid" width="40" height="40" patternUnits="userSpaceOnUse">
      <path d="M 40 0 L 0 0 0 40" fill="none" stroke="rgba(255,255,255,0.06)" stroke-width="1"/>
    </pattern>
    <filter id="cardShadow" x="-20%" y="-20%" width="140%" height="140%">
      <feGaussianBlur in="SourceAlpha" stdDeviation="10"/>
      <feOffset dx="0" dy="14"/>
      <feComponentTransfer><feFuncA type="linear" slope="0.45"/></feComponentTransfer>
      <feMerge><feMergeNode/><feMergeNode in="SourceGraphic"/></feMerge>
    </filter>
  </defs>

  <!-- Grid background -->
  <rect width="800" height="600" fill="url(#grid)"/>

  <!-- Decorative soft circles -->
  <circle cx="110" cy="120" r="90" fill="rgba(255,255,255,0.06)"/>
  <circle cx="700" cy="510" r="130" fill="rgba(255,255,255,0.05)"/>
  <circle cx="80"  cy="500" r="8"   fill="rgba(255,255,255,0.30)"/>
  <circle cx="110" cy="540" r="5"   fill="rgba(255,255,255,0.22)"/>
  <circle cx="720" cy="80"  r="6"   fill="rgba(255,255,255,0.25)"/>
  <circle cx="760" cy="130" r="4"   fill="rgba(255,255,255,0.20)"/>
  <circle cx="660" cy="120" r="3"   fill="rgba(255,255,255,0.18)"/>

  <!-- Camera viewfinder corners -->
  <g stroke="rgba(255,255,255,0.55)" stroke-width="4" fill="none" stroke-linecap="round">
    <path d="M 200 130 L 200 100 L 240 100"/>
    <path d="M 660 130 L 660 100 L 620 100"/>
    <path d="M 200 470 L 200 500 L 240 500"/>
    <path d="M 660 470 L 660 500 L 620 500"/>
  </g>

  <!-- ID Card (tilted) -->
  <g transform="translate(220, 170) rotate(-7)" filter="url(#cardShadow)">
    <!-- Card body -->
    <rect width="420" height="260" rx="22" fill="url(#cardBg)"/>

    <!-- Top header bar -->
    <path d="M 0 22 Q 0 0 22 0 L 398 0 Q 420 0 420 22 L 420 70 L 0 70 Z" fill="url(#cardHeader)"/>
    <text x="210" y="44" font-family="'Space Grotesk', sans-serif" font-size="15" font-weight="700" fill="#ffffff" text-anchor="middle" letter-spacing="2">
      THẺ SINH VIÊN · STUDENT CARD
    </text>

    <!-- Photo placeholder -->
    <rect x="22" y="90" width="110" height="140" rx="10" fill="#c7d2e0"/>
    <circle cx="77" cy="138" r="22" fill="#6b7280"/>
    <path d="M 36 200 Q 77 168 118 200 L 118 230 L 36 230 Z" fill="#6b7280"/>

    <!-- Text lines (info) -->
    <rect x="152" y="98"  width="190" height="10" rx="5" fill="#1f2937"/>
    <rect x="152" y="120" width="120" height="6"  rx="3" fill="#9ca3af"/>
    <rect x="152" y="138" width="200" height="6"  rx="3" fill="#9ca3af"/>
    <rect x="152" y="156" width="150" height="6"  rx="3" fill="#9ca3af"/>
    <rect x="152" y="174" width="100" height="6"  rx="3" fill="#9ca3af"/>

    <!-- QR code -->
    <g transform="translate(310, 145)">
      <rect width="86" height="86" rx="6" fill="#ffffff" stroke="#1f2937" stroke-width="1.5"/>
      <g fill="#111827">
        <!-- Top-left finder -->
        <rect x="8"  y="8"  width="22" height="22"/>
        <rect x="11" y="11" width="16" height="16" fill="#ffffff"/>
        <rect x="14" y="14" width="10" height="10"/>
        <!-- Top-right finder -->
        <rect x="56" y="8"  width="22" height="22"/>
        <rect x="59" y="11" width="16" height="16" fill="#ffffff"/>
        <rect x="62" y="14" width="10" height="10"/>
        <!-- Bottom-left finder -->
        <rect x="8"  y="56" width="22" height="22"/>
        <rect x="11" y="59" width="16" height="16" fill="#ffffff"/>
        <rect x="14" y="62" width="10" height="10"/>
        <!-- Random data dots -->
        <rect x="36" y="10" width="4" height="4"/>
        <rect x="44" y="10" width="4" height="4"/>
        <rect x="36" y="18" width="4" height="4"/>
        <rect x="48" y="22" width="4" height="4"/>
        <rect x="38" y="30" width="4" height="4"/>
        <rect x="10" y="36" width="4" height="4"/>
        <rect x="22" y="36" width="4" height="4"/>
        <rect x="30" y="36" width="4" height="4"/>
        <rect x="42" y="36" width="4" height="4"/>
        <rect x="56" y="38" width="4" height="4"/>
        <rect x="68" y="38" width="4" height="4"/>
        <rect x="36" y="44" width="4" height="4"/>
        <rect x="48" y="44" width="4" height="4"/>
        <rect x="64" y="46" width="4" height="4"/>
        <rect x="36" y="52" width="4" height="4"/>
        <rect x="56" y="58" width="4" height="4"/>
        <rect x="40" y="62" width="4" height="4"/>
        <rect x="48" y="66" width="4" height="4"/>
        <rect x="68" y="64" width="4" height="4"/>
        <rect x="40" y="72" width="4" height="4"/>
      </g>
    </g>
  </g>

  <!-- Horizontal scan line (red) -->
  <line x1="200" y1="300" x2="660" y2="300"
        stroke="rgba(255,255,255,0.85)" stroke-width="2" stroke-dasharray="8,5"/>
  <line x1="200" y1="300" x2="660" y2="300"
        stroke="rgba(255,80,80,0.55)" stroke-width="6"
        filter="url(#cardShadow)" stroke-linecap="round"/>
</svg>
